<svg width="1440" height="900" viewBox="0 0 1440 900" fill="none" xmlns="http://www.w3.org/2000/svg">
<rect width="1440" height="900" fill="#E5E5E5"/>
<g clip-path="url(#clip0_0:1)">
<rect width="1440" height="900" fill="white"/>
<rect x="-2" width="1440" height="900" fill="white"/>
<path d="M96.375 332.854V371.917H85.9583V338.063L59.9167 319.833L33.875 338.063V345.875H23.4584V332.854L59.9167 306.812L96.375 332.854ZM67.7292 335.458H62.5208V340.667H67.7292V335.458ZM57.3125 335.458H52.1042V340.667H57.3125V335.458ZM67.7292 345.875H62.5208V351.083H67.7292V345.875ZM57.3125 345.875H52.1042V351.083H57.3125V345.875ZM85.9583 382.333H75.5417C75.5417 376.083 71.6354 370.458 65.8021 368.271L33.7188 356.292H-7.79163V413.583H23.4584V406.083L59.9167 416.188L101.583 403.167V397.958C101.583 389.313 94.6042 382.333 85.9583 382.333ZM2.62504 403.167V366.708H13.0417V403.167H2.62504ZM59.7604 405.302L23.4584 395.25V366.708H31.8438L62.1563 378.01C63.9271 378.688 65.125 380.406 65.125 382.333C65.125 382.333 54.7604 382.073 53.1458 381.552L40.75 377.438L37.4688 387.333L49.8646 391.448C52.5208 392.333 55.2813 392.802 58.0938 392.802H85.9583C87.9896 392.802 89.8125 394 90.6458 395.719L59.7604 405.302V405.302Z" fill="#EEEEEE"/>
<path d="M1386.61 553.75L1385.88 557.561L1381.19 583.928V600.625H1381.63C1382.28 605.156 1383.86 609.502 1386.28 613.386C1388.71 617.27 1391.91 620.608 1395.69 623.186C1378.97 630.358 1367.12 646.952 1367.12 666.25H1376.5C1376.49 660.624 1377.75 655.068 1380.19 649.996C1382.62 644.924 1386.17 640.466 1390.56 636.953V640.028L1391.88 641.495L1410.63 660.245L1414 663.466L1417.37 660.245L1436.12 641.495L1437.44 640.028V636.953C1441.83 640.466 1445.38 644.924 1447.81 649.996C1450.25 655.068 1451.51 660.624 1451.5 666.25H1460.88C1460.88 646.952 1449.03 630.363 1432.31 623.181C1436.09 620.604 1439.29 617.267 1441.72 613.383C1444.14 609.5 1445.72 605.155 1446.37 600.625H1446.81V583.923L1442.12 557.561L1441.39 553.75H1386.61ZM1394.52 563.125H1433.48L1437.44 585.536V591.25H1390.56V585.536L1394.52 563.125ZM1409.31 567.812V572.5H1404.62V581.875H1409.31V586.562H1418.69V581.875H1423.38V572.5H1418.69V567.812H1409.31ZM1391 600.625H1437C1435.91 605.923 1433.03 610.684 1428.84 614.101C1424.65 617.519 1419.41 619.382 1414 619.375C1408.59 619.382 1403.35 617.519 1399.16 614.101C1394.97 610.684 1392.09 605.923 1391 600.625V600.625ZM1414 628.75C1418.81 628.725 1423.59 629.621 1428.06 631.389V636.077L1414 650.139L1399.94 636.077V631.389C1404.41 629.621 1409.19 628.725 1414 628.75V628.75Z" fill="#EEEEEE"/>
<path d="M1283.64 415.105C1284.15 415.471 1284.75 415.668 1285.37 415.669C1285.99 415.671 1286.6 415.477 1287.1 415.114C1287.56 414.784 1287.92 414.333 1288.14 413.809L1289.53 409.491C1289.87 408.45 1290.44 407.504 1291.2 406.728C1291.96 405.952 1292.89 405.368 1293.91 405.022L1298 403.666C1298.58 403.456 1299.09 403.065 1299.45 402.548C1299.81 402.032 1300 401.414 1300 400.781C1300 400.148 1299.81 399.531 1299.45 399.014C1299.09 398.497 1298.58 398.106 1298 397.896L1293.84 396.529C1292.82 396.182 1291.89 395.599 1291.13 394.826C1290.37 394.053 1289.8 393.111 1289.45 392.074L1288.13 387.916C1287.92 387.319 1287.54 386.802 1287.03 386.436C1286.52 386.077 1285.91 385.885 1285.29 385.885C1284.67 385.885 1284.07 386.077 1283.56 386.436C1283.04 386.809 1282.65 387.339 1282.45 387.949L1281.11 392.151C1280.77 393.161 1280.2 394.08 1279.46 394.838C1278.73 395.596 1277.83 396.173 1276.84 396.526L1272.76 397.875C1272.17 398.087 1271.66 398.48 1271.3 399.001C1270.94 399.521 1270.75 400.143 1270.75 400.779C1270.75 401.415 1270.95 402.035 1271.32 402.551C1271.68 403.067 1272.2 403.454 1272.79 403.658L1276.82 404.993C1277.85 405.343 1278.78 405.929 1279.54 406.707C1280.3 407.484 1280.87 408.431 1281.21 409.473L1282.54 413.625C1282.75 414.222 1283.13 414.74 1283.64 415.105H1283.64ZM1300.99 425.569C1301.36 425.836 1301.8 425.98 1302.25 425.98L1302.26 425.984C1302.71 425.984 1303.16 425.837 1303.53 425.564C1303.91 425.291 1304.18 424.905 1304.33 424.462L1304.97 422.457C1305.1 422.056 1305.32 421.691 1305.62 421.391C1305.91 421.093 1306.27 420.87 1306.66 420.736L1308.67 420.069C1308.99 419.954 1309.28 419.766 1309.51 419.518C1309.75 419.271 1309.92 418.971 1310.03 418.642C1310.13 418.314 1310.16 417.966 1310.1 417.625C1310.05 417.285 1309.92 416.961 1309.73 416.68C1309.45 416.283 1309.05 415.99 1308.6 415.843L1306.62 415.191C1306.23 415.057 1305.87 414.833 1305.58 414.534C1305.29 414.236 1305.06 413.872 1304.93 413.472L1304.28 411.423C1304.13 410.985 1303.84 410.606 1303.47 410.339C1303.1 410.072 1302.65 409.931 1302.2 409.935C1301.74 409.939 1301.3 410.087 1300.93 410.36C1300.56 410.633 1300.28 411.017 1300.14 411.457L1299.5 413.47C1299.37 413.864 1299.15 414.223 1298.87 414.52C1298.58 414.817 1298.24 415.044 1297.85 415.183L1295.84 415.85C1295.41 416.004 1295.04 416.291 1294.78 416.671C1294.51 417.051 1294.38 417.504 1294.38 417.968C1294.38 418.433 1294.53 418.884 1294.8 419.259C1295.06 419.635 1295.44 419.916 1295.87 420.063L1297.84 420.716C1298.24 420.85 1298.59 421.076 1298.89 421.376C1299.18 421.675 1299.4 422.04 1299.53 422.442L1300.19 424.491C1300.34 424.926 1300.62 425.303 1300.98 425.569H1300.99Z" fill="#EEEEEE"/>
<path d="M94.5475 455.258C94.9224 455.524 95.3703 455.667 95.8298 455.669C96.2893 455.67 96.738 455.529 97.1142 455.265C97.4517 455.025 97.7167 454.697 97.8784 454.316L98.9084 451.175C99.1602 450.418 99.5851 449.73 100.149 449.166C100.713 448.602 101.401 448.177 102.158 447.925L105.184 446.939C105.618 446.786 105.994 446.502 106.26 446.126C106.526 445.75 106.669 445.301 106.669 444.841C106.669 444.38 106.526 443.931 106.26 443.556C105.994 443.18 105.618 442.896 105.184 442.742L102.101 441.748C101.346 441.496 100.66 441.072 100.097 440.51C99.5339 439.948 99.1087 439.263 98.855 438.508L97.8725 435.484C97.7196 435.05 97.4353 434.674 97.0592 434.408C96.6814 434.147 96.233 434.007 95.7738 434.007C95.3145 434.007 94.8662 434.147 94.4884 434.408C94.1054 434.679 93.8177 435.064 93.6659 435.508L92.6717 438.564C92.4192 439.299 92.0034 439.967 91.4555 440.518C90.9076 441.069 90.2418 441.489 89.5084 441.746L86.4859 442.728C86.0493 442.881 85.6716 443.167 85.4053 443.546C85.139 443.924 84.9974 444.377 85.0002 444.839C85.0029 445.302 85.1499 445.753 85.4207 446.128C85.6915 446.503 86.0725 446.785 86.5109 446.933L89.5 447.904C90.2574 448.158 90.9454 448.585 91.5097 449.15C92.0741 449.716 92.4992 450.405 92.7517 451.163L93.735 454.182C93.8875 454.616 94.1717 454.993 94.5484 455.258H94.5475ZM107.397 462.868C107.671 463.062 107.998 463.167 108.333 463.167L108.338 463.17C108.677 463.17 109.009 463.063 109.284 462.864C109.56 462.666 109.766 462.386 109.874 462.063L110.348 460.605C110.446 460.313 110.61 460.048 110.827 459.83C111.043 459.613 111.308 459.451 111.598 459.353L113.089 458.868C113.326 458.785 113.539 458.648 113.714 458.468C113.888 458.288 114.018 458.07 114.094 457.831C114.17 457.592 114.19 457.339 114.151 457.091C114.113 456.843 114.017 456.608 113.873 456.403C113.667 456.115 113.373 455.902 113.035 455.795L111.571 455.321C111.28 455.224 111.015 455.06 110.799 454.843C110.582 454.626 110.418 454.362 110.321 454.071L109.836 452.58C109.724 452.262 109.515 451.986 109.238 451.792C108.962 451.598 108.632 451.495 108.294 451.498C107.956 451.501 107.628 451.609 107.355 451.807C107.082 452.006 106.877 452.285 106.77 452.605L106.293 454.069C106.199 454.356 106.04 454.617 105.829 454.833C105.618 455.049 105.361 455.214 105.077 455.315L103.585 455.8C103.267 455.912 102.991 456.121 102.797 456.397C102.604 456.673 102.501 457.003 102.503 457.341C102.506 457.678 102.614 458.006 102.812 458.28C103.011 458.553 103.289 458.757 103.609 458.864L105.069 459.339C105.361 459.437 105.626 459.601 105.843 459.819C106.06 460.036 106.223 460.302 106.319 460.594L106.804 462.084C106.916 462.401 107.123 462.675 107.396 462.868H107.397Z" fill="#EEEEEE"/>
<path d="M60.5475 122.258C60.9224 122.524 61.3703 122.667 61.8298 122.669C62.2893 122.67 62.738 122.529 63.1142 122.265C63.4517 122.025 63.7167 121.697 63.8784 121.316L64.9084 118.175C65.1602 117.418 65.5851 116.73 66.1492 116.166C66.7134 115.602 67.4013 115.177 68.1584 114.925L71.1842 113.939C71.6184 113.786 71.9944 113.502 72.2604 113.126C72.5263 112.75 72.6692 112.301 72.6692 111.841C72.6692 111.38 72.5263 110.931 72.2604 110.556C71.9944 110.18 71.6184 109.896 71.1842 109.742L68.1009 108.748C67.3462 108.496 66.6603 108.072 66.0971 107.51C65.5339 106.948 65.1087 106.263 64.855 105.508L63.8725 102.484C63.7196 102.05 63.4353 101.674 63.0592 101.408C62.6814 101.147 62.233 101.007 61.7738 101.007C61.3145 101.007 60.8662 101.147 60.4884 101.408C60.1054 101.679 59.8177 102.064 59.6659 102.508L58.6717 105.564C58.4192 106.299 58.0034 106.967 57.4555 107.518C56.9076 108.069 56.2418 108.489 55.5084 108.746L52.4859 109.727C52.0493 109.881 51.6716 110.167 51.4053 110.546C51.139 110.924 50.9974 111.377 51.0002 111.839C51.0029 112.302 51.1499 112.753 51.4207 113.128C51.6915 113.503 52.0725 113.785 52.5109 113.933L55.5 114.904C56.2574 115.158 56.9454 115.585 57.5097 116.15C58.0741 116.716 58.4992 117.405 58.7517 118.162L59.735 121.182C59.8875 121.616 60.1717 121.992 60.5484 122.258H60.5475ZM73.3967 129.868C73.6709 130.062 73.9975 130.167 74.3334 130.167L74.3375 130.17C74.6773 130.17 75.0085 130.063 75.2843 129.864C75.56 129.666 75.7664 129.386 75.8742 129.063L76.3484 127.605C76.4459 127.313 76.61 127.048 76.8267 126.83C77.0434 126.613 77.3075 126.451 77.5975 126.353L79.0892 125.868C79.3256 125.785 79.5394 125.648 79.7138 125.468C79.8882 125.288 80.0185 125.07 80.0944 124.831C80.1703 124.592 80.1898 124.339 80.1513 124.091C80.1128 123.843 80.0174 123.608 79.8725 123.403C79.6666 123.115 79.3727 122.902 79.035 122.795L77.5709 122.321C77.2799 122.224 77.0155 122.06 76.7985 121.843C76.5816 121.626 76.4181 121.362 76.3209 121.071L75.8359 119.58C75.7236 119.262 75.5146 118.986 75.2382 118.792C74.9618 118.598 74.6317 118.495 74.294 118.498C73.9563 118.501 73.628 118.609 73.3547 118.807C73.0815 119.006 72.8771 119.285 72.77 119.605L72.2934 121.069C72.1989 121.356 72.0401 121.617 71.8293 121.833C71.6184 122.049 71.361 122.214 71.0767 122.315L69.585 122.8C69.2667 122.912 68.9914 123.121 68.7975 123.397C68.6036 123.673 68.5008 124.003 68.5034 124.341C68.5061 124.678 68.6141 125.006 68.8123 125.28C69.0106 125.553 69.2891 125.757 69.6092 125.864L71.0692 126.339C71.3609 126.437 71.6258 126.601 71.8428 126.819C72.0599 127.036 72.223 127.302 72.3192 127.594L72.8042 129.084C72.9159 129.401 73.1225 129.675 73.3959 129.868H73.3967Z" fill="#EEEEEE"/>
<path d="M1207.61 653.126C1208.08 653.479 1208.64 653.667 1209.21 653.665V653.656C1209.75 653.657 1210.28 653.489 1210.73 653.173C1211.18 652.856 1211.54 652.405 1211.75 651.876L1212.93 648.07C1213.2 647.208 1213.65 646.425 1214.26 645.783C1214.86 645.141 1215.6 644.658 1216.41 644.371L1219.82 643.191C1220.37 642.985 1220.84 642.601 1221.17 642.092C1221.5 641.583 1221.68 640.975 1221.67 640.355C1221.65 639.736 1221.46 639.136 1221.11 638.64C1220.76 638.145 1220.27 637.78 1219.72 637.597L1216.35 636.433C1215.54 636.145 1214.8 635.658 1214.19 635.012C1213.59 634.366 1213.13 633.578 1212.86 632.711L1211.75 629.083C1211.56 628.505 1211.2 628.006 1210.73 627.654C1210.26 627.303 1209.7 627.116 1209.12 627.121C1208.54 627.126 1207.98 627.322 1207.52 627.682C1207.05 628.041 1206.7 628.547 1206.52 629.128L1205.4 632.787C1205.13 633.628 1204.69 634.394 1204.1 635.025C1203.51 635.657 1202.8 636.138 1202.01 636.433L1198.6 637.599C1198.06 637.801 1197.58 638.18 1197.25 638.682C1196.92 639.185 1196.74 639.787 1196.74 640.402C1196.75 641.018 1196.93 641.617 1197.27 642.115C1197.61 642.613 1198.09 642.986 1198.63 643.181L1202 644.342C1202.81 644.633 1203.55 645.121 1204.15 645.768C1204.76 646.415 1205.22 647.203 1205.49 648.07L1206.6 651.694C1206.79 652.272 1207.14 652.772 1207.61 653.124V653.126ZM1206.89 644.449C1206.68 644.151 1206.44 643.869 1206.19 643.605H1206.2C1205.27 642.619 1204.14 641.876 1202.9 641.435L1199.84 640.398L1202.92 639.328C1204.15 638.877 1205.25 638.133 1206.16 637.154C1207.07 636.168 1207.75 634.975 1208.16 633.666L1209.15 630.437L1210.13 633.677C1210.55 634.998 1211.24 636.198 1212.17 637.181C1213.09 638.164 1214.22 638.902 1215.46 639.338L1218.57 640.404L1215.52 641.455C1214.28 641.894 1213.16 642.635 1212.23 643.618C1211.31 644.602 1210.62 645.801 1210.21 647.121L1209.22 650.351L1208.23 647.115C1207.93 646.151 1207.48 645.249 1206.89 644.449V644.449ZM1222.3 663.43C1221.94 663.153 1221.66 662.761 1221.52 662.309L1220.89 660.253C1220.77 659.862 1220.56 659.506 1220.29 659.214C1220.01 658.922 1219.68 658.703 1219.31 658.573L1217.41 657.913C1216.98 657.757 1216.6 657.46 1216.33 657.063C1216.06 656.667 1215.92 656.191 1215.92 655.702C1215.92 655.217 1216.06 654.743 1216.32 654.348C1216.59 653.953 1216.96 653.655 1217.39 653.497L1219.32 652.832C1219.68 652.696 1220.01 652.475 1220.27 652.185C1220.54 651.895 1220.74 651.544 1220.86 651.159L1221.48 649.134C1221.62 648.676 1221.9 648.278 1222.27 647.995C1222.63 647.711 1223.08 647.556 1223.53 647.552C1223.98 647.547 1224.43 647.693 1224.8 647.968C1225.17 648.244 1225.46 648.637 1225.61 649.091L1226.24 651.162C1226.37 651.55 1226.57 651.902 1226.84 652.191C1227.12 652.48 1227.45 652.698 1227.81 652.828L1229.71 653.487C1230.15 653.633 1230.54 653.922 1230.81 654.314C1231.09 654.705 1231.24 655.179 1231.25 655.668C1231.26 656.157 1231.12 656.637 1230.86 657.039C1230.6 657.441 1230.22 657.744 1229.79 657.907L1227.85 658.579C1227.48 658.71 1227.15 658.93 1226.88 659.221C1226.6 659.513 1226.4 659.867 1226.28 660.257L1225.66 662.276C1225.51 662.746 1225.23 663.154 1224.85 663.44C1224.47 663.722 1224.03 663.872 1223.57 663.871C1223.12 663.869 1222.67 663.715 1222.3 663.43V663.43ZM1220.33 655.706C1221.08 655.992 1221.76 656.453 1222.33 657.057C1222.89 657.661 1223.32 658.392 1223.58 659.195C1223.85 658.395 1224.28 657.668 1224.84 657.068C1225.41 656.467 1226.09 656.008 1226.84 655.725C1226.08 655.441 1225.39 654.981 1224.82 654.378C1224.26 653.775 1223.82 653.043 1223.55 652.237C1223.28 653.033 1222.86 653.757 1222.3 654.357C1221.74 654.957 1221.07 655.418 1220.33 655.708L1220.33 655.706Z" fill="#EEEEEE"/>
<path d="M1330.13 231.092C1330.67 231.467 1331.32 231.667 1331.98 231.664V231.656C1332.6 231.657 1333.21 231.478 1333.73 231.143C1334.25 230.807 1334.66 230.328 1334.91 229.766L1336.26 225.728C1336.58 224.813 1337.1 223.982 1337.8 223.301C1338.49 222.619 1339.34 222.106 1340.28 221.802L1344.2 220.549C1344.83 220.331 1345.38 219.923 1345.76 219.383C1346.15 218.843 1346.34 218.198 1346.33 217.54C1346.32 216.883 1346.1 216.246 1345.69 215.72C1345.29 215.195 1344.73 214.807 1344.09 214.613L1340.21 213.378C1339.27 213.072 1338.42 212.556 1337.72 211.87C1337.03 211.184 1336.5 210.348 1336.19 209.428L1334.91 205.578C1334.69 204.965 1334.28 204.435 1333.73 204.062C1333.19 203.689 1332.54 203.491 1331.88 203.496C1331.21 203.501 1330.57 203.709 1330.03 204.091C1329.49 204.472 1329.09 205.009 1328.88 205.625L1327.59 209.508C1327.28 210.401 1326.77 211.214 1326.09 211.884C1325.41 212.554 1324.59 213.065 1323.68 213.378L1319.76 214.615C1319.13 214.829 1318.58 215.231 1318.2 215.765C1317.82 216.299 1317.61 216.937 1317.62 217.59C1317.62 218.243 1317.83 218.879 1318.22 219.408C1318.61 219.937 1319.16 220.332 1319.8 220.539L1323.67 221.771C1324.61 222.08 1325.46 222.598 1326.16 223.284C1326.85 223.971 1327.38 224.807 1327.69 225.728L1328.97 229.574C1329.19 230.187 1329.59 230.718 1330.13 231.09V231.092ZM1329.31 221.884C1329.06 221.568 1328.79 221.269 1328.51 220.989H1328.51C1327.45 219.942 1326.15 219.154 1324.71 218.686L1321.18 217.585L1324.74 216.45C1326.15 215.972 1327.42 215.182 1328.47 214.143C1329.51 213.096 1330.3 211.831 1330.77 210.442L1331.91 207.014L1333.05 210.453C1333.52 211.855 1334.32 213.128 1335.39 214.171C1336.46 215.214 1337.76 215.999 1339.19 216.461L1342.76 217.592L1339.25 218.708C1337.83 219.174 1336.53 219.959 1335.47 221.003C1334.4 222.047 1333.6 223.32 1333.13 224.72L1331.99 228.148L1330.85 224.714C1330.51 223.691 1329.98 222.734 1329.31 221.884V221.884ZM1347.06 242.028C1346.64 241.733 1346.33 241.318 1346.16 240.838L1345.43 238.656C1345.3 238.241 1345.06 237.863 1344.74 237.554C1344.43 237.244 1344.04 237.011 1343.62 236.873L1341.43 236.173C1340.93 236.007 1340.5 235.692 1340.19 235.271C1339.88 234.851 1339.71 234.346 1339.71 233.827C1339.71 233.311 1339.87 232.809 1340.18 232.39C1340.48 231.97 1340.91 231.655 1341.41 231.487L1343.63 230.78C1344.05 230.637 1344.42 230.402 1344.73 230.094C1345.03 229.787 1345.26 229.414 1345.4 229.006L1346.11 226.857C1346.28 226.371 1346.6 225.948 1347.02 225.647C1347.45 225.347 1347.96 225.182 1348.48 225.177C1349 225.172 1349.51 225.327 1349.94 225.62C1350.37 225.912 1350.7 226.329 1350.88 226.811L1351.6 229.008C1351.75 229.42 1351.98 229.794 1352.3 230.101C1352.61 230.407 1353 230.639 1353.42 230.776L1355.61 231.476C1356.11 231.631 1356.55 231.938 1356.87 232.353C1357.19 232.769 1357.36 233.272 1357.37 233.791C1357.38 234.31 1357.23 234.819 1356.92 235.245C1356.62 235.672 1356.19 235.994 1355.69 236.167L1353.45 236.88C1353.03 237.019 1352.65 237.253 1352.34 237.562C1352.02 237.871 1351.79 238.247 1351.65 238.661L1350.94 240.803C1350.76 241.302 1350.44 241.735 1350 242.038C1349.57 242.338 1349.05 242.497 1348.53 242.495C1348 242.493 1347.49 242.33 1347.06 242.028V242.028ZM1344.79 233.831C1345.66 234.134 1346.45 234.624 1347.09 235.264C1347.74 235.905 1348.24 236.681 1348.54 237.534C1348.85 236.685 1349.34 235.913 1349.99 235.276C1350.64 234.639 1351.43 234.152 1352.3 233.851C1351.42 233.55 1350.63 233.062 1349.97 232.422C1349.32 231.781 1348.81 231.005 1348.5 230.15C1348.2 230.995 1347.71 231.763 1347.06 232.399C1346.42 233.036 1345.64 233.526 1344.79 233.833L1344.79 233.831Z" fill="#EEEEEE"/>
<path d="M113.855 214.059C114.416 214.456 115.086 214.667 115.771 214.664V214.655C116.418 214.656 117.051 214.468 117.591 214.112C118.132 213.757 118.556 213.251 118.812 212.657L120.217 208.385C120.541 207.418 121.086 206.539 121.809 205.818C122.532 205.097 123.412 204.555 124.381 204.233L128.455 202.908C129.112 202.678 129.678 202.246 130.075 201.674C130.472 201.103 130.679 200.421 130.665 199.725C130.652 199.03 130.42 198.356 130.002 197.8C129.584 197.244 129.001 196.835 128.336 196.629L124.314 195.323C123.341 194.999 122.457 194.453 121.732 193.728C121.007 193.003 120.462 192.118 120.139 191.145L118.814 187.073C118.583 186.424 118.156 185.864 117.592 185.469C117.027 185.074 116.354 184.865 115.666 184.871C114.977 184.876 114.308 185.096 113.75 185.5C113.192 185.904 112.774 186.471 112.553 187.123L111.217 191.23C110.895 192.175 110.363 193.034 109.66 193.743C108.957 194.452 108.103 194.992 107.161 195.323L103.089 196.631C102.436 196.858 101.871 197.283 101.472 197.848C101.073 198.412 100.861 199.087 100.865 199.778C100.869 200.469 101.09 201.141 101.496 201.701C101.901 202.26 102.472 202.678 103.128 202.897L107.147 204.201C108.12 204.527 109.004 205.074 109.728 205.801C110.453 206.527 110.999 207.412 111.323 208.385L112.647 212.453C112.874 213.101 113.296 213.663 113.855 214.057V214.059ZM112.998 204.32C112.742 203.986 112.464 203.67 112.166 203.373H112.173C111.066 202.266 109.717 201.432 108.231 200.937L104.565 199.773L108.256 198.572C109.717 198.066 111.043 197.231 112.129 196.132C113.211 195.025 114.027 193.686 114.515 192.218L115.695 188.592L116.878 192.229C117.371 193.712 118.204 195.058 119.311 196.162C120.418 197.265 121.767 198.095 123.251 198.584L126.963 199.78L123.32 200.96C121.838 201.453 120.492 202.284 119.389 203.388C118.285 204.492 117.455 205.838 116.963 207.32L115.782 210.945L114.602 207.313C114.242 206.231 113.699 205.219 112.998 204.32V204.32ZM131.425 225.625C130.989 225.314 130.66 224.874 130.486 224.367L129.734 222.06C129.589 221.62 129.344 221.221 129.017 220.893C128.69 220.566 128.292 220.319 127.853 220.174L125.581 219.433C125.062 219.258 124.61 218.924 124.289 218.479C123.968 218.034 123.794 217.5 123.792 216.951C123.792 216.406 123.962 215.875 124.279 215.431C124.596 214.988 125.043 214.654 125.559 214.476L127.864 213.729C128.293 213.577 128.681 213.329 128.998 213.004C129.316 212.678 129.555 212.285 129.697 211.853L130.44 209.579C130.614 209.065 130.944 208.618 131.384 208.3C131.824 207.982 132.352 207.808 132.894 207.803C133.437 207.798 133.968 207.961 134.414 208.271C134.86 208.58 135.198 209.021 135.383 209.531L136.137 211.855C136.285 212.29 136.531 212.686 136.857 213.01C137.183 213.335 137.58 213.579 138.016 213.725L140.289 214.465C140.813 214.629 141.273 214.954 141.602 215.393C141.931 215.833 142.113 216.365 142.123 216.914C142.133 217.463 141.97 218.001 141.657 218.452C141.344 218.903 140.897 219.244 140.379 219.426L138.055 220.18C137.618 220.328 137.221 220.575 136.896 220.902C136.571 221.229 136.326 221.627 136.18 222.064L135.443 224.331C135.264 224.858 134.925 225.316 134.469 225.637C134.024 225.953 133.491 226.122 132.945 226.12C132.399 226.118 131.868 225.945 131.425 225.625V225.625ZM129.065 216.956C129.965 217.276 130.783 217.794 131.456 218.472C132.13 219.15 132.643 219.97 132.958 220.873C133.277 219.974 133.792 219.158 134.466 218.484C135.14 217.81 135.956 217.295 136.854 216.977C135.948 216.659 135.124 216.142 134.443 215.465C133.762 214.788 133.24 213.967 132.917 213.063C132.601 213.956 132.092 214.768 131.426 215.442C130.759 216.115 129.952 216.633 129.063 216.958L129.065 216.956Z" fill="#EEEEEE"/>
<path d="M188.857 432.484V420.766C188.857 418.824 190.656 417.25 192.875 417.25H206.268C208.487 417.25 210.286 418.824 210.286 420.766V432.484C210.286 434.426 208.487 436 206.268 436H192.875C190.656 436 188.857 434.426 188.857 432.484ZM235.732 436H249.125C251.344 436 253.143 434.426 253.143 432.484V420.766C253.143 418.824 251.344 417.25 249.125 417.25H235.732C233.513 417.25 231.714 418.824 231.714 420.766V432.484C231.714 434.426 233.513 436 235.732 436ZM210.286 460.609V448.891C210.286 446.949 208.487 445.375 206.268 445.375H192.875C190.656 445.375 188.857 446.949 188.857 448.891V460.609C188.857 462.551 190.656 464.125 192.875 464.125H206.268C208.487 464.125 210.286 462.551 210.286 460.609ZM235.732 464.125H249.125C251.344 464.125 253.143 462.551 253.143 460.609V448.891C253.143 446.949 251.344 445.375 249.125 445.375H235.732C233.513 445.375 231.714 446.949 231.714 448.891V460.609C231.714 462.551 233.513 464.125 235.732 464.125ZM296 500.453V511H146V500.453C146 498.512 147.799 496.938 150.018 496.938H156.547V385.913C156.547 382.509 160.145 379.75 164.583 379.75H194.214V368.031C194.214 364.148 197.812 361 202.25 361H239.75C244.188 361 247.786 364.148 247.786 368.031V379.75H277.417C281.855 379.75 285.453 382.509 285.453 385.913V496.938H291.982C294.201 496.938 296 498.512 296 500.453ZM172.618 496.645H210.286V477.016C210.286 475.074 212.085 473.5 214.304 473.5H227.696C229.915 473.5 231.714 475.074 231.714 477.016V496.645H269.382V393.812H247.786V400.844C247.786 404.727 244.188 407.875 239.75 407.875H202.25C197.812 407.875 194.214 404.727 194.214 400.844V393.812H172.618V496.645ZM235.063 379.75H226.357V372.133C226.357 371.667 226.145 371.22 225.769 370.89C225.392 370.56 224.881 370.375 224.348 370.375H217.652C217.119 370.375 216.608 370.56 216.231 370.89C215.855 371.22 215.643 371.667 215.643 372.133V379.75H206.938C206.405 379.75 205.894 379.935 205.517 380.265C205.14 380.595 204.929 381.042 204.929 381.508V387.367C204.929 387.833 205.14 388.28 205.517 388.61C205.894 388.94 206.405 389.125 206.938 389.125H215.643V396.742C215.643 397.208 215.855 397.655 216.231 397.985C216.608 398.315 217.119 398.5 217.652 398.5H224.348C224.881 398.5 225.392 398.315 225.769 397.985C226.145 397.655 226.357 397.208 226.357 396.742V389.125H235.063C235.595 389.125 236.106 388.94 236.483 388.61C236.86 388.28 237.071 387.833 237.071 387.367V381.508C237.071 381.042 236.86 380.595 236.483 380.265C236.106 379.935 235.595 379.75 235.063 379.75Z" fill="#EEEEEE"/>
<path fill-rule="evenodd" clip-rule="evenodd" d="M213.809 233.281L213.528 233.063C212.987 228.956 211.022 224.678 207.953 221.072C202.969 215.213 194.844 210.75 183.969 210.75C173.25 210.75 165.697 215.638 161.241 221.697C159.162 224.5 157.677 227.697 156.875 231.094C156.729 231.73 156.612 232.372 156.525 233.019L156.187 233.278C152.675 236 150.097 239.3 150.709 243.084C151.297 246.741 154.603 248.966 157.678 250.325C158.459 250.672 159.303 250.997 160.2 251.3C159.748 254.823 160.052 258.401 161.092 261.797C162.131 265.193 163.882 268.329 166.228 270.995C168.575 273.662 171.462 275.798 174.698 277.261C177.934 278.724 181.445 279.48 184.997 279.48C188.548 279.48 192.059 278.724 195.296 277.261C198.532 275.798 201.419 273.662 203.765 270.995C206.112 268.329 207.863 265.193 208.902 261.797C209.942 258.401 210.246 254.823 209.794 251.3C210.691 250.997 211.534 250.675 212.316 250.325C215.391 248.966 218.694 246.741 219.284 243.084C219.897 239.3 217.319 236 213.806 233.278L213.809 233.281ZM162.953 237.85C162.547 236.681 162.441 234.803 162.969 232.481C163.487 230.216 164.562 227.731 166.25 225.431V234.188C166.25 235.016 166.579 235.811 167.165 236.397C167.751 236.983 168.546 237.312 169.375 237.312C170.204 237.312 170.999 236.983 171.585 236.397C172.171 235.811 172.5 235.016 172.5 234.188V219.844C175.072 218.381 178.181 217.359 181.875 217.078V227.938C181.875 228.766 182.204 229.561 182.79 230.147C183.376 230.733 184.171 231.062 185 231.062C185.829 231.062 186.624 230.733 187.21 230.147C187.796 229.561 188.125 228.766 188.125 227.938V217.272C191.775 217.762 194.897 218.891 197.5 220.397V234.188C197.5 235.016 197.829 235.811 198.415 236.397C199.001 236.983 199.796 237.312 200.625 237.312C201.454 237.312 202.249 236.983 202.835 236.397C203.421 235.811 203.75 235.016 203.75 234.188V225.806C207.203 230.231 208.012 235.006 207.041 237.872C206.8 238.581 206.822 239.353 207.103 240.048C207.383 240.742 207.904 241.312 208.57 241.655C209.236 241.998 210.003 242.09 210.731 241.915C211.459 241.739 212.1 241.308 212.537 240.7C213.153 241.559 213.131 242.016 213.119 242.087C213.078 242.337 212.6 243.369 209.791 244.613C208.572 245.15 207.122 245.634 205.494 246.062L205.419 246.081C203.653 246.537 201.687 246.925 199.584 247.244C195.684 247.806 191.753 248.13 187.812 248.213C185.104 248.28 182.394 248.251 179.687 248.125C176.575 247.986 173.471 247.689 170.387 247.238C168.294 246.925 166.341 246.537 164.581 246.081L164.506 246.062C163.038 245.693 161.601 245.208 160.209 244.613C157.4 243.369 156.922 242.337 156.881 242.087C156.869 242.016 156.847 241.559 157.462 240.7C157.9 241.311 158.544 241.744 159.275 241.919C160.006 242.094 160.775 242 161.442 241.653C162.109 241.307 162.629 240.732 162.907 240.033C163.184 239.335 163.201 238.56 162.953 237.85V237.85ZM166.319 252.878C167.356 253.081 168.431 253.266 169.531 253.431C172.869 253.931 176.462 254.25 180.119 254.4C183.378 254.534 186.641 254.534 189.9 254.4C193.537 254.25 197.119 253.931 200.441 253.431C201.55 253.269 202.634 253.084 203.681 252.878C203.903 255.466 203.586 258.072 202.748 260.531C201.91 262.989 200.57 265.247 198.814 267.161C197.057 269.074 194.923 270.602 192.545 271.647C190.167 272.693 187.597 273.232 185 273.232C182.402 273.232 179.833 272.693 177.455 271.647C175.077 270.602 172.943 269.074 171.186 267.161C169.43 265.247 168.09 262.989 167.252 260.531C166.414 258.072 166.097 255.466 166.319 252.878V252.878Z" fill="#EEEEEE"/>
<path fill-rule="evenodd" clip-rule="evenodd" d="M200.625 281.031C202.681 281.391 204.775 281.809 206.875 282.288C223.884 286.172 241.25 293.938 241.25 304.5V323.25H128.75V304.5C128.75 293.938 146.116 286.172 163.125 282.288C165.197 281.815 167.281 281.396 169.375 281.031V295.125H200.625V281.031V281.031ZM156.875 290.406C158.919 289.781 161.016 289.216 163.125 288.706V301.375H206.875V288.709C210.041 289.467 213.169 290.372 216.25 291.422V317H222.5V293.866C223.406 294.269 224.281 294.684 225.119 295.112C228.672 296.919 231.306 298.781 232.975 300.563C234.616 302.313 235 303.603 235 304.5V317H135V304.5C135 303.603 135.384 302.313 137.025 300.563C138.694 298.781 141.328 296.919 144.881 295.112C146.659 294.206 148.587 293.356 150.625 292.566V317H156.875V290.409V290.406Z" fill="#EEEEEE"/>
<path d="M1327.93 254.98C1326.4 251.479 1324.2 248.31 1321.45 245.655C1318.67 242.966 1315.41 240.834 1311.83 239.371C1308.09 237.84 1304.09 237.057 1300.05 237.065C1295.96 237.065 1292 237.841 1288.27 239.371C1284.69 240.832 1281.43 242.965 1278.65 245.655C1275.9 248.308 1273.7 251.477 1272.17 254.98C1270.59 258.581 1269.78 262.469 1269.78 266.399V320.973C1269.78 332.528 1260.09 341.929 1248.17 341.929C1236.25 341.929 1226.55 332.526 1226.55 320.973V295.827H1233.38C1234.82 295.827 1235.98 294.705 1235.98 293.313V284.003C1243.45 279.529 1248.43 271.516 1248.43 262.377V251.812H1252.19C1253.62 251.812 1254.79 250.689 1254.79 249.297V239.491C1254.79 238.328 1253.97 237.348 1252.87 237.063H1237.67V212.202C1237.68 210.815 1236.51 209.688 1235.08 209.688H1231.62C1230.19 209.688 1229.03 210.815 1229.03 212.202V237.063H1215.45V212.202C1215.45 210.815 1214.29 209.688 1212.86 209.688H1209.4C1207.97 209.688 1206.81 210.815 1206.81 212.202V237.063H1191.6C1191.06 237.198 1190.58 237.511 1190.23 237.951C1189.88 238.39 1189.69 238.933 1189.69 239.493V249.297C1189.69 250.689 1190.85 251.812 1192.28 251.812H1196.04V262.377C1196.04 271.518 1201.01 279.527 1208.49 284.003V293.313C1208.49 294.705 1209.65 295.827 1211.08 295.827H1217.91V320.973C1217.91 324.934 1218.72 328.776 1220.29 332.395C1221.82 335.897 1224.03 339.066 1226.78 341.72C1229.55 344.411 1232.82 346.546 1236.4 348.009C1240.13 349.539 1244.1 350.312 1248.18 350.312C1252.26 350.312 1256.23 349.539 1259.96 348.009C1263.53 346.548 1266.8 344.413 1269.57 341.72C1272.33 339.069 1274.53 335.9 1276.06 332.395C1277.64 328.794 1278.45 324.904 1278.44 320.973V266.399C1278.44 254.847 1288.13 245.444 1300.05 245.444C1311.97 245.444 1321.67 254.849 1321.67 266.399V350.312H1330.31V266.399C1330.31 262.443 1329.51 258.597 1327.93 254.98Z" fill="#EEEEEE"/>
<path d="M15.6875 150.719C13.6563 150.719 11.5469 151.422 10.0625 152.906C8.57813 154.391 7.875 156.5 7.875 158.531V162.438H-27.2812V240.562H16.4687C15.9609 238.063 15.6875 235.445 15.6875 232.75H-19.4688V207.125C-17.1641 208.453 -14.5078 209.312 -11.6562 209.312H23.5391C25.7266 206.344 28.3828 203.688 31.3516 201.5H-11.6562C-16.3047 201.5 -19.4688 198.336 -19.4688 193.688V170.25H66.4688V193.688C66.4688 194.312 66.4297 194.898 66.3125 195.445C69.125 196.305 71.7813 197.477 74.2812 198.922V162.438H39.125V158.531C39.125 156.5 38.4219 154.391 36.9375 152.906C35.4531 151.422 33.3437 150.719 31.3125 150.719H15.6875ZM15.6875 158.531H31.3125V162.438H15.6875V158.531ZM-3.84375 185.875V197.594H3.96875V185.875H-3.84375ZM43.0312 185.875V195.484C45.575 194.689 48.1924 194.153 50.8438 193.883V185.875H43.0312ZM54.75 201.5C37.5234 201.5 23.5 215.523 23.5 232.75C23.5 249.977 37.5234 264 54.75 264C71.9766 264 86 249.977 86 232.75C86 215.523 71.9766 201.5 54.75 201.5ZM54.75 209.312C67.7187 209.312 78.1875 219.781 78.1875 232.75C78.1875 245.719 67.7187 256.188 54.75 256.188C41.7813 256.188 31.3125 245.719 31.3125 232.75C31.3125 219.781 41.7813 209.312 54.75 209.312ZM50.8438 213.219V236.656H70.375V228.844H58.6562V213.219H50.8438Z" fill="#EEEEEE"/>
<path d="M1322.67 176.167C1318.08 175.75 1313.92 174.083 1310.17 171.167C1308.08 169.083 1305.17 167.833 1301.83 167.833C1298.92 167.833 1295.58 169.083 1293.5 171.167C1289.75 174.5 1285.17 175.75 1280.58 175.75C1275.58 175.75 1270.58 174.083 1266.83 171.167C1261.83 166.583 1254.33 166.583 1249.75 171.167C1246 174.5 1241 176.167 1235.58 176.167C1230.58 176.167 1226 174.5 1222.25 171.167C1219.75 169.083 1216.83 167.833 1213.92 167.833C1210.58 167.833 1206.83 169.083 1204.33 171.167C1200.17 174.5 1194.75 176.167 1189.75 175.75V167.833C1193.08 167.833 1196.83 166.583 1199.33 164.083C1203.5 160.75 1208.5 159.083 1213.5 159.5C1218.5 159.5 1223.5 161.167 1227.25 164.5C1232.25 169.083 1239.75 169.083 1244.75 164.5C1252.67 157.833 1264.33 157.833 1271.83 164.5C1276.83 169.083 1284.33 169.083 1288.92 164.5C1292.67 161.167 1297.67 159.5 1302.67 159.5C1307.25 159.5 1311.83 161.167 1315.17 164.5C1317.67 166.583 1318.5 167.833 1322.67 167.833V176.167Z" fill="#EEEEEE"/>
<path d="M1198.08 156.167C1200.58 154.083 1203.08 152.833 1206 152V142.833C1206 140.333 1207.67 138.25 1210.17 138.25H1314.33L1299.33 151.167H1300.17C1303.5 151.167 1306.83 152 1309.33 153.25L1319.75 144.083L1320.58 143.25C1323.5 139.5 1322.67 134.5 1318.92 131.583C1318.08 130.75 1316 130.333 1314.33 130.333H1210.17C1203.08 130.333 1197.67 135.75 1197.67 142.833L1198.08 156.167Z" fill="#EEEEEE"/>
<path d="M1243.08 125.75H1218.08C1213.5 125.75 1209.75 122 1209.75 117.417C1209.75 115.75 1210.17 114.083 1211.42 112.417L1228.5 88.25C1231 84.5 1236.42 83.6667 1240.17 86.1667C1242.25 87.8334 1243.5 90.3334 1243.5 92.8334V125.75H1243.08Z" fill="#EEEEEE"/>
<path d="M1282.25 125.75H1247.67V73.6666C1247.67 69.0833 1251.42 65.3333 1256 65.3333C1258.92 65.3333 1261.42 67 1263.08 69.5L1289.33 112.833C1291.83 117 1290.17 122 1286.42 124.083C1285.17 124.917 1283.5 125.333 1282.25 125.75Z" fill="#EEEEEE"/>
<path d="M1361.55 125.258C1361.92 125.524 1362.37 125.667 1362.83 125.669C1363.29 125.67 1363.74 125.529 1364.11 125.265C1364.45 125.025 1364.72 124.697 1364.88 124.316L1365.91 121.175C1366.16 120.418 1366.59 119.73 1367.15 119.166C1367.71 118.602 1368.4 118.177 1369.16 117.925L1372.18 116.939C1372.62 116.786 1372.99 116.502 1373.26 116.126C1373.53 115.75 1373.67 115.301 1373.67 114.841C1373.67 114.38 1373.53 113.931 1373.26 113.556C1372.99 113.18 1372.62 112.896 1372.18 112.742L1369.1 111.748C1368.35 111.496 1367.66 111.072 1367.1 110.51C1366.53 109.948 1366.11 109.263 1365.86 108.508L1364.87 105.484C1364.72 105.05 1364.44 104.674 1364.06 104.408C1363.68 104.147 1363.23 104.007 1362.77 104.007C1362.31 104.007 1361.87 104.147 1361.49 104.408C1361.11 104.679 1360.82 105.064 1360.67 105.508L1359.67 108.564C1359.42 109.299 1359 109.967 1358.46 110.518C1357.91 111.069 1357.24 111.489 1356.51 111.746L1353.49 112.727C1353.05 112.881 1352.67 113.167 1352.41 113.546C1352.14 113.924 1352 114.377 1352 114.839C1352 115.302 1352.15 115.753 1352.42 116.128C1352.69 116.503 1353.07 116.785 1353.51 116.933L1356.5 117.904C1357.26 118.158 1357.95 118.585 1358.51 119.15C1359.07 119.716 1359.5 120.405 1359.75 121.162L1360.74 124.182C1360.89 124.616 1361.17 124.992 1361.55 125.258H1361.55ZM1374.4 132.868C1374.67 133.062 1375 133.167 1375.33 133.167L1375.34 133.17C1375.68 133.17 1376.01 133.063 1376.28 132.864C1376.56 132.666 1376.77 132.386 1376.87 132.063L1377.35 130.605C1377.45 130.313 1377.61 130.048 1377.83 129.83C1378.04 129.613 1378.31 129.451 1378.6 129.353L1380.09 128.868C1380.33 128.785 1380.54 128.648 1380.71 128.468C1380.89 128.288 1381.02 128.07 1381.09 127.831C1381.17 127.592 1381.19 127.339 1381.15 127.091C1381.11 126.843 1381.02 126.608 1380.87 126.403C1380.67 126.115 1380.37 125.902 1380.04 125.795L1378.57 125.321C1378.28 125.224 1378.02 125.06 1377.8 124.843C1377.58 124.626 1377.42 124.362 1377.32 124.071L1376.84 122.58C1376.72 122.262 1376.51 121.986 1376.24 121.792C1375.96 121.598 1375.63 121.495 1375.29 121.498C1374.96 121.501 1374.63 121.609 1374.35 121.807C1374.08 122.006 1373.88 122.285 1373.77 122.605L1373.29 124.069C1373.2 124.356 1373.04 124.617 1372.83 124.833C1372.62 125.049 1372.36 125.214 1372.08 125.315L1370.59 125.8C1370.27 125.912 1369.99 126.121 1369.8 126.397C1369.6 126.673 1369.5 127.003 1369.5 127.341C1369.51 127.678 1369.61 128.006 1369.81 128.28C1370.01 128.553 1370.29 128.757 1370.61 128.864L1372.07 129.339C1372.36 129.437 1372.63 129.601 1372.84 129.819C1373.06 130.036 1373.22 130.302 1373.32 130.594L1373.8 132.084C1373.92 132.401 1374.12 132.675 1374.4 132.868H1374.4Z" fill="#EEEEEE"/>
<path d="M218.875 120.883L207.156 93.5391C206.857 92.833 206.357 92.2306 205.718 91.8069C205.079 91.3831 204.329 91.1569 203.562 91.1562H191.844V83.3438C191.844 82.3077 191.432 81.3142 190.7 80.5816C189.967 79.8491 188.974 79.4375 187.938 79.4375H113.719C112.683 79.4375 111.689 79.8491 110.957 80.5816C110.224 81.3142 109.812 82.3077 109.812 83.3438V149.75C109.812 150.786 110.224 151.78 110.957 152.512C111.689 153.245 112.683 153.656 113.719 153.656H122.078C122.978 156.966 124.941 159.888 127.666 161.972C130.391 164.055 133.726 165.184 137.156 165.184C140.586 165.184 143.921 164.055 146.646 161.972C149.371 159.888 151.335 156.966 152.234 153.656H176.766C177.665 156.966 179.629 159.888 182.354 161.972C185.079 164.055 188.414 165.184 191.844 165.184C195.274 165.184 198.609 164.055 201.334 161.972C204.059 159.888 206.022 156.966 206.922 153.656H215.281C216.317 153.656 217.311 153.245 218.043 152.512C218.776 151.78 219.188 150.786 219.188 149.75V122.406C219.186 121.883 219.08 121.365 218.875 120.883ZM191.844 98.9688H200.984L209.344 118.5H191.844V98.9688ZM137.156 157.562C135.611 157.562 134.101 157.104 132.816 156.246C131.531 155.387 130.53 154.167 129.938 152.74C129.347 151.312 129.192 149.741 129.494 148.226C129.795 146.71 130.539 145.318 131.632 144.226C132.725 143.133 134.117 142.389 135.632 142.088C137.148 141.786 138.718 141.941 140.146 142.532C141.574 143.124 142.794 144.125 143.652 145.41C144.511 146.694 144.969 148.205 144.969 149.75C144.969 151.822 144.146 153.809 142.681 155.274C141.215 156.739 139.228 157.562 137.156 157.562ZM176.766 145.844H152.234C151.335 142.534 149.371 139.612 146.646 137.528C143.921 135.445 140.586 134.316 137.156 134.316C133.726 134.316 130.391 135.445 127.666 137.528C124.941 139.612 122.978 142.534 122.078 145.844H117.625V87.25H184.031V136.312C182.253 137.345 180.695 138.718 179.448 140.354C178.201 141.989 177.29 143.855 176.766 145.844ZM191.844 157.562C190.299 157.562 188.788 157.104 187.503 156.246C186.219 155.387 185.217 154.167 184.626 152.74C184.035 151.312 183.88 149.741 184.181 148.226C184.483 146.71 185.227 145.318 186.319 144.226C187.412 143.133 188.804 142.389 190.32 142.088C191.835 141.786 193.406 141.941 194.833 142.532C196.261 143.124 197.481 144.125 198.34 145.41C199.198 146.694 199.656 148.205 199.656 149.75C199.656 151.822 198.833 153.809 197.368 155.274C195.903 156.739 193.916 157.562 191.844 157.562ZM211.375 145.844H206.922C206.058 142.498 204.11 139.533 201.381 137.413C198.653 135.292 195.299 134.136 191.844 134.125V126.312H211.375V145.844Z" fill="#EEEEEE"/>
<path d="M1299 625.375C1286.84 625.375 1275.19 630.204 1266.59 638.799C1258 647.395 1253.17 659.053 1253.17 671.208C1253.09 677.87 1254.52 684.462 1257.33 690.5C1258.73 693.07 1260.29 695.547 1262 697.917C1265.34 702.391 1268.13 707.244 1270.33 712.375C1271.85 717.806 1272.67 723.405 1272.79 729.042H1281.12C1281 722.426 1280 715.857 1278.17 709.5C1275.76 703.698 1272.66 698.213 1268.92 693.167C1267.4 691.11 1266.01 688.968 1264.75 686.75C1262.51 681.85 1261.4 676.511 1261.5 671.125C1261.5 661.141 1265.47 651.565 1272.53 644.505C1279.59 637.445 1289.16 633.479 1299.15 633.479C1309.13 633.479 1318.71 637.445 1325.77 644.505C1332.83 651.565 1336.79 661.141 1336.79 671.125C1336.8 676.565 1335.57 681.935 1333.21 686.833C1331.95 689.051 1330.55 691.194 1329.04 693.25C1325.32 698.272 1322.23 703.729 1319.83 709.5C1317.99 715.884 1317 722.482 1316.87 729.125H1325.21C1325.33 723.489 1326.15 717.889 1327.67 712.458C1329.87 707.327 1332.66 702.474 1336 698C1337.72 695.577 1339.28 693.044 1340.67 690.417C1343.48 684.379 1344.91 677.786 1344.83 671.125C1344.81 658.984 1339.97 647.347 1331.38 638.77C1322.79 630.192 1311.14 625.375 1299 625.375V625.375Z" fill="#EEEEEE"/>
<path d="M1301.63 680.625C1301 680.002 1300.15 679.652 1299.27 679.652C1298.39 679.652 1297.54 680.002 1296.92 680.625L1284.42 693.125L1296.33 706.167V729.25H1303.17V703.5L1293.83 693.292L1301.71 685.417C1302.02 685.1 1302.27 684.724 1302.44 684.309C1302.61 683.894 1302.69 683.45 1302.68 683.003C1302.67 682.556 1302.58 682.115 1302.4 681.707C1302.21 681.298 1301.95 680.93 1301.63 680.625V680.625Z" fill="#EEEEEE"/>
<path d="M1323.42 737.458H1274.46C1273.57 737.458 1272.73 737.81 1272.1 738.435C1271.48 739.06 1271.12 739.908 1271.12 740.792C1271.12 741.676 1271.48 742.524 1272.1 743.149C1272.73 743.774 1273.57 744.125 1274.46 744.125H1323.42C1324.3 744.125 1325.15 743.774 1325.77 743.149C1326.4 742.524 1326.75 741.676 1326.75 740.792C1326.75 739.908 1326.4 739.06 1325.77 738.435C1325.15 737.81 1324.3 737.458 1323.42 737.458Z" fill="#EEEEEE"/>
<path d="M1315.67 749.958H1282.33C1281.45 749.958 1280.6 750.31 1279.98 750.935C1279.35 751.56 1279 752.408 1279 753.292C1279 754.176 1279.35 755.024 1279.98 755.649C1280.6 756.274 1281.45 756.625 1282.33 756.625H1315.67C1316.55 756.625 1317.4 756.274 1318.02 755.649C1318.65 755.024 1319 754.176 1319 753.292C1319 752.408 1318.65 751.56 1318.02 750.935C1317.4 750.31 1316.55 749.958 1315.67 749.958V749.958Z" fill="#EEEEEE"/>
<path d="M1296.17 703.042L1284.79 714.417C1284.22 715.051 1283.91 715.882 1283.93 716.737C1283.95 717.592 1284.3 718.407 1284.9 719.012C1285.51 719.617 1286.32 719.966 1287.18 719.987C1288.04 720.008 1288.87 719.7 1289.5 719.125L1300.87 707.667C1301.21 707.363 1301.48 706.995 1301.67 706.585C1301.86 706.174 1301.96 705.73 1301.97 705.279C1301.98 704.827 1301.9 704.378 1301.73 703.959C1301.56 703.54 1301.31 703.159 1300.99 702.839C1300.67 702.52 1300.29 702.269 1299.87 702.101C1299.46 701.934 1299.01 701.853 1298.55 701.864C1298.1 701.875 1297.66 701.978 1297.25 702.166C1296.84 702.354 1296.47 702.624 1296.17 702.958V703.042Z" fill="#EEEEEE"/>
<path d="M115.38 652.811C115.009 652.255 114.506 651.799 113.917 651.483C113.327 651.168 112.669 651.002 112 651.002C111.331 651.002 110.673 651.168 110.083 651.483C109.494 651.799 108.991 652.255 108.62 652.811L84.245 689.374C83.8379 689.985 83.6043 690.696 83.5692 691.43C83.5341 692.164 83.6987 692.894 84.0456 693.542C84.3924 694.19 84.9085 694.731 85.5388 695.109C86.1692 695.487 86.8901 695.686 87.625 695.687H88.4212L71.9925 721.971C71.6081 722.586 71.3954 723.293 71.3764 724.018C71.3573 724.743 71.5327 725.459 71.8842 726.094C72.2358 726.728 72.7507 727.257 73.3755 727.625C74.0003 727.993 74.7123 728.187 75.4375 728.187H76.9894L63.6806 754.804C63.3703 755.424 63.2234 756.112 63.2541 756.804C63.2848 757.496 63.4919 758.169 63.8559 758.758C64.2198 759.348 64.7285 759.835 65.3335 760.172C65.9385 760.51 66.6197 760.687 67.3125 760.687H103.875V780.999H120.125V760.687H156.687C157.38 760.687 158.061 760.51 158.666 760.172C159.271 759.835 159.78 759.348 160.144 758.758C160.508 758.169 160.715 757.496 160.746 756.804C160.777 756.112 160.63 755.424 160.319 754.804L147.019 728.187H148.571C149.296 728.187 150.008 727.993 150.633 727.625C151.257 727.257 151.772 726.728 152.124 726.094C152.475 725.459 152.651 724.743 152.632 724.018C152.613 723.293 152.4 722.586 152.016 721.971L135.579 695.687H136.375C137.11 695.686 137.831 695.487 138.461 695.109C139.091 694.731 139.608 694.19 139.954 693.542C140.301 692.894 140.466 692.164 140.431 691.43C140.396 690.696 140.162 689.985 139.755 689.374L115.38 652.811V652.811ZM99.3006 689.658C98.9497 689.024 98.4354 688.495 97.811 688.126C97.1866 687.757 96.475 687.563 95.75 687.562H95.2137L112 662.382L128.786 687.562H128.25C127.525 687.562 126.813 687.756 126.188 688.124C125.563 688.492 125.048 689.021 124.697 689.655C124.345 690.289 124.17 691.006 124.189 691.731C124.208 692.456 124.421 693.162 124.805 693.777L141.234 720.062H140.437C139.745 720.062 139.063 720.239 138.458 720.576C137.853 720.914 137.345 721.401 136.981 721.99C136.617 722.58 136.41 723.252 136.379 723.944C136.348 724.636 136.495 725.325 136.806 725.944L150.106 752.562H73.8856L87.1944 725.944C87.5047 725.325 87.6515 724.636 87.6209 723.944C87.5902 723.252 87.383 722.58 87.0191 721.99C86.6551 721.401 86.1465 720.914 85.5415 720.576C84.9365 720.239 84.2553 720.062 83.5625 720.062H82.7662L99.195 693.777C99.5783 693.163 99.7903 692.456 99.8088 691.732C99.8274 691.008 99.6519 690.292 99.3006 689.658V689.658Z" fill="#EEEEEE"/>
<path d="M29.05 658.781C29.5604 659.142 30.1688 659.333 30.7917 659.331V659.323C31.3797 659.324 31.9551 659.152 32.4466 658.829C32.938 658.506 33.3238 658.046 33.5563 657.506L34.8334 653.623C35.1284 652.743 35.624 651.944 36.281 651.289C36.938 650.634 37.7383 650.141 38.6188 649.848L42.3229 648.644C42.9196 648.434 43.435 648.042 43.7957 647.522C44.1564 647.003 44.3441 646.383 44.3321 645.75C44.3201 645.118 44.109 644.506 43.7289 644C43.3487 643.495 42.8188 643.122 42.2146 642.935L38.5584 641.748C37.6738 641.454 36.8701 640.957 36.2112 640.298C35.5522 639.639 35.0562 638.835 34.7625 637.95L33.5584 634.248C33.3484 633.658 32.9599 633.149 32.447 632.79C31.934 632.431 31.3221 632.241 30.6962 632.246C30.0703 632.251 29.4615 632.451 28.9545 632.818C28.4474 633.185 28.0672 633.701 27.8667 634.294L26.6521 638.027C26.3592 638.886 25.8751 639.667 25.2364 640.312C24.5976 640.956 23.8208 641.447 22.9646 641.748L19.2625 642.938C18.6691 643.144 18.155 643.53 17.7925 644.043C17.43 644.556 17.2371 645.17 17.241 645.798C17.2449 646.426 17.4454 647.037 17.8143 647.546C18.1832 648.054 18.702 648.435 19.2979 648.633L22.9521 649.819C23.8364 650.115 24.6397 650.613 25.2985 651.273C25.9573 651.934 26.4535 652.738 26.7479 653.623L27.9521 657.321C28.1584 657.91 28.5417 658.421 29.05 658.779V658.781ZM28.2709 649.927C28.0385 649.624 27.7859 649.336 27.5146 649.067H27.5209C26.5148 648.06 25.2879 647.302 23.9375 646.852L20.6042 645.794L23.9604 644.702C25.2886 644.242 26.4933 643.483 27.4813 642.483C28.465 641.477 29.2066 640.26 29.65 638.925L30.7229 635.629L31.7979 638.935C32.2465 640.283 33.004 641.508 34.01 642.511C35.0159 643.514 36.2425 644.268 37.5917 644.713L40.9667 645.8L37.6542 646.873C36.3076 647.321 35.0841 648.076 34.0809 649.08C33.0776 650.084 32.3223 651.307 31.875 652.654L30.8021 655.95L29.7292 652.648C29.4016 651.665 28.9084 650.744 28.2709 649.927V649.927ZM45.0229 669.296C44.626 669.013 44.3274 668.613 44.1688 668.152L43.4854 666.054C43.354 665.655 43.1308 665.292 42.8338 664.994C42.5368 664.696 42.1742 664.472 41.775 664.34L39.7104 663.667C39.2378 663.507 38.8269 663.204 38.5351 662.799C38.2434 662.395 38.0854 661.909 38.0834 661.41C38.0837 660.915 38.2386 660.432 38.5265 660.028C38.8145 659.625 39.221 659.322 39.6896 659.16L41.7854 658.481C42.1751 658.343 42.5278 658.117 42.8167 657.821C43.1056 657.526 43.323 657.168 43.4521 656.775L44.1271 654.708C44.2859 654.241 44.5859 653.835 44.9856 653.546C45.3854 653.256 45.8651 653.098 46.3585 653.094C46.8519 653.089 47.3346 653.237 47.7398 653.519C48.1451 653.8 48.453 654.201 48.6209 654.665L49.3063 656.777C49.4405 657.173 49.6645 657.533 49.9609 657.828C50.2573 658.123 50.618 658.345 51.0146 658.477L53.0813 659.15C53.5577 659.299 53.9751 659.594 54.2743 659.994C54.5736 660.393 54.7395 660.877 54.7484 661.376C54.7574 661.875 54.6091 662.364 54.3244 662.774C54.0398 663.184 53.6333 663.494 53.1625 663.66L51.05 664.346C50.6528 664.48 50.2921 664.704 49.9964 665.002C49.7007 665.299 49.478 665.66 49.3459 666.058L48.675 668.119C48.5125 668.598 48.2042 669.015 47.7896 669.306C47.3852 669.594 46.9008 669.747 46.4046 669.746C45.9084 669.744 45.4252 669.586 45.0229 669.296V669.296ZM42.8771 661.415C43.6958 661.706 44.4387 662.177 45.0513 662.793C45.6639 663.409 46.1304 664.155 46.4167 664.975C46.7062 664.158 47.1744 663.416 47.7871 662.804C48.3998 662.191 49.1416 661.723 49.9584 661.433C49.1344 661.144 48.3853 660.675 47.7661 660.059C47.1468 659.444 46.673 658.697 46.3792 657.875C46.0921 658.687 45.6291 659.426 45.0233 660.038C44.4175 660.65 43.6839 661.121 42.875 661.417L42.8771 661.415Z" fill="#EEEEEE"/>
<g clip-path="url(#clip1_0:1)">
<path d="M86.7185 485.281C73.5323 472.095 55.648 464.687 37 464.687C18.3519 464.687 0.467597 472.095 -12.7186 485.281C-25.9048 498.468 -33.3127 516.352 -33.3127 535C-33.3127 553.648 -25.9048 571.532 -12.7186 584.719C0.467597 597.905 18.3519 605.313 37 605.313C55.648 605.313 73.5323 597.905 86.7185 584.719C99.9047 571.532 107.313 553.648 107.313 535C107.313 516.352 99.9047 498.468 86.7185 485.281V485.281ZM63.2693 554.64C67.5167 548.973 69.8125 542.082 69.8125 535C69.8125 527.918 67.5167 521.027 63.2693 515.36L83.255 495.374C92.7286 506.403 97.9375 520.461 97.9375 535C97.9375 549.539 92.7286 563.597 83.255 574.626L63.2693 554.64ZM13.5625 535C13.5625 530.364 14.9371 525.833 17.5124 521.979C20.0877 518.125 23.7482 515.12 28.0308 513.347C32.3135 511.573 37.026 511.108 41.5724 512.013C46.1188 512.917 50.295 515.149 53.5728 518.427C56.8506 521.705 59.0828 525.881 59.9871 530.428C60.8915 534.974 60.4273 539.686 58.6534 543.969C56.8795 548.252 53.8754 551.912 50.0211 554.488C46.1669 557.063 41.6355 558.437 37 558.437C30.7861 558.43 24.8288 555.959 20.4349 551.565C16.0411 547.171 13.5695 541.214 13.5625 535V535ZM76.626 488.745L56.6403 508.731C50.9732 504.483 44.082 502.187 37 502.187C29.9179 502.187 23.0267 504.483 17.3596 508.731L-2.6261 488.745C8.40282 479.271 22.4608 474.062 37 474.062C51.5391 474.062 65.5971 479.271 76.626 488.745V488.745ZM-9.25511 495.374L10.7306 515.36C6.48327 521.027 4.18746 527.918 4.18746 535C4.18746 542.082 6.48327 548.973 10.7306 554.64L-9.25511 574.626C-18.7287 563.597 -23.9375 549.539 -23.9375 535C-23.9375 520.461 -18.7287 506.403 -9.25511 495.374V495.374ZM-2.6261 581.255L17.3596 561.269C23.0267 565.517 29.9179 567.812 37 567.812C44.082 567.812 50.9732 565.517 56.6403 561.269L76.626 581.255C65.5971 590.729 51.5391 595.938 37 595.938C22.4608 595.938 8.40282 590.729 -2.6261 581.255V581.255Z" fill="#EEEEEE"/>
</g>
<path fill-rule="evenodd" clip-rule="evenodd" d="M1379.94 700.89C1379.94 700.97 1379.92 701.049 1379.9 701.123C1379.87 701.198 1379.83 701.265 1379.78 701.321C1379.73 701.378 1379.67 701.423 1379.6 701.454C1379.53 701.484 1379.46 701.5 1379.39 701.5H1376.11C1376.04 701.5 1375.97 701.484 1375.9 701.454C1375.83 701.423 1375.77 701.378 1375.72 701.321C1375.67 701.265 1375.63 701.198 1375.6 701.123C1375.58 701.049 1375.56 700.97 1375.56 700.89V697.235C1375.56 697.155 1375.58 697.076 1375.6 697.002C1375.63 696.927 1375.67 696.86 1375.72 696.804C1375.77 696.747 1375.83 696.702 1375.9 696.671C1375.97 696.641 1376.04 696.625 1376.11 696.625H1379.39C1379.46 696.625 1379.53 696.641 1379.6 696.671C1379.67 696.702 1379.73 696.747 1379.78 696.804C1379.83 696.86 1379.87 696.927 1379.9 697.002C1379.92 697.076 1379.94 697.155 1379.94 697.235V700.89V700.89ZM1384.31 713.078C1384.31 713.158 1384.3 713.237 1384.27 713.311C1384.24 713.385 1384.2 713.452 1384.15 713.509C1384.1 713.566 1384.04 713.611 1383.97 713.641C1383.91 713.672 1383.84 713.688 1383.77 713.688H1380.48C1380.41 713.688 1380.34 713.672 1380.28 713.641C1380.21 713.611 1380.15 713.566 1380.1 713.509C1380.05 713.452 1380.01 713.385 1379.98 713.311C1379.95 713.237 1379.94 713.158 1379.94 713.078V709.422C1379.94 709.342 1379.95 709.263 1379.98 709.189C1380.01 709.115 1380.05 709.048 1380.1 708.991C1380.15 708.934 1380.21 708.889 1380.28 708.859C1380.34 708.828 1380.41 708.812 1380.48 708.812H1383.77C1383.84 708.812 1383.91 708.828 1383.97 708.859C1384.04 708.889 1384.1 708.934 1384.15 708.991C1384.2 709.048 1384.24 709.115 1384.27 709.189C1384.3 709.263 1384.31 709.342 1384.31 709.422V713.078V713.078ZM1397.44 703.328C1397.44 703.408 1397.42 703.487 1397.4 703.561C1397.37 703.635 1397.33 703.702 1397.28 703.759C1397.23 703.816 1397.17 703.861 1397.1 703.891C1397.03 703.922 1396.96 703.938 1396.89 703.938H1393.61C1393.54 703.938 1393.47 703.922 1393.4 703.891C1393.33 703.861 1393.27 703.816 1393.22 703.759C1393.17 703.702 1393.13 703.635 1393.1 703.561C1393.08 703.487 1393.06 703.408 1393.06 703.328V699.672C1393.06 699.592 1393.08 699.513 1393.1 699.439C1393.13 699.365 1393.17 699.298 1393.22 699.241C1393.27 699.184 1393.33 699.139 1393.4 699.109C1393.47 699.078 1393.54 699.062 1393.61 699.062H1396.89C1396.96 699.062 1397.03 699.078 1397.1 699.109C1397.17 699.139 1397.23 699.184 1397.28 699.241C1397.33 699.298 1397.37 699.365 1397.4 699.439C1397.42 699.513 1397.44 699.592 1397.44 699.672V703.328ZM1384.31 705.765C1384.31 705.845 1384.33 705.924 1384.35 705.998C1384.38 706.073 1384.42 706.14 1384.47 706.196C1384.52 706.253 1384.58 706.298 1384.65 706.329C1384.72 706.359 1384.79 706.375 1384.86 706.375H1388.14C1388.21 706.375 1388.28 706.359 1388.35 706.329C1388.42 706.298 1388.48 706.253 1388.53 706.196C1388.58 706.14 1388.62 706.073 1388.65 705.998C1388.67 705.924 1388.69 705.845 1388.69 705.765V702.11C1388.69 702.03 1388.67 701.951 1388.65 701.877C1388.62 701.802 1388.58 701.735 1388.53 701.679C1388.48 701.622 1388.42 701.577 1388.35 701.546C1388.28 701.516 1388.21 701.5 1388.14 701.5H1384.86C1384.79 701.5 1384.72 701.516 1384.65 701.546C1384.58 701.577 1384.52 701.622 1384.47 701.679C1384.42 701.735 1384.38 701.802 1384.35 701.877C1384.33 701.951 1384.31 702.03 1384.31 702.11V705.765ZM1388.69 693.578C1388.69 693.658 1388.7 693.737 1388.73 693.811C1388.76 693.885 1388.8 693.952 1388.85 694.009C1388.9 694.066 1388.96 694.111 1389.03 694.141C1389.09 694.172 1389.16 694.188 1389.23 694.188H1392.52C1392.59 694.188 1392.66 694.172 1392.72 694.141C1392.79 694.111 1392.85 694.066 1392.9 694.009C1392.95 693.952 1392.99 693.885 1393.02 693.811C1393.05 693.737 1393.06 693.658 1393.06 693.578V689.922C1393.06 689.842 1393.05 689.763 1393.02 689.689C1392.99 689.615 1392.95 689.548 1392.9 689.491C1392.85 689.434 1392.79 689.389 1392.72 689.359C1392.66 689.328 1392.59 689.312 1392.52 689.313H1389.23C1389.16 689.312 1389.09 689.328 1389.03 689.359C1388.96 689.389 1388.9 689.434 1388.85 689.491C1388.8 689.548 1388.76 689.615 1388.73 689.689C1388.7 689.763 1388.69 689.842 1388.69 689.922V693.578V693.578Z" fill="#EEEEEE"/>
<path fill-rule="evenodd" clip-rule="evenodd" d="M1387.12 326.968C1387.13 327.103 1387.1 327.238 1387.04 327.363C1386.98 327.488 1386.89 327.602 1386.79 327.698C1386.68 327.794 1386.55 327.87 1386.41 327.922C1386.27 327.973 1386.12 328 1385.97 328H1379.03C1378.88 328 1378.73 327.973 1378.59 327.922C1378.45 327.87 1378.32 327.794 1378.21 327.698C1378.11 327.602 1378.02 327.488 1377.96 327.363C1377.9 327.238 1377.87 327.103 1377.88 326.968V320.782C1377.87 320.647 1377.9 320.512 1377.96 320.387C1378.02 320.262 1378.11 320.148 1378.21 320.052C1378.32 319.956 1378.45 319.88 1378.59 319.828C1378.73 319.777 1378.88 319.75 1379.03 319.75H1385.97C1386.12 319.75 1386.27 319.777 1386.41 319.828C1386.55 319.88 1386.68 319.956 1386.79 320.052C1386.89 320.148 1386.98 320.262 1387.04 320.387C1387.1 320.512 1387.13 320.647 1387.12 320.782V326.968V326.968ZM1396.38 347.593C1396.38 347.728 1396.35 347.863 1396.29 347.988C1396.23 348.113 1396.14 348.227 1396.04 348.323C1395.93 348.419 1395.8 348.495 1395.66 348.547C1395.52 348.598 1395.37 348.625 1395.22 348.625H1388.28C1388.13 348.625 1387.98 348.598 1387.84 348.547C1387.7 348.495 1387.57 348.419 1387.46 348.323C1387.36 348.227 1387.27 348.113 1387.21 347.988C1387.15 347.863 1387.12 347.728 1387.12 347.593V341.407C1387.12 341.272 1387.15 341.137 1387.21 341.012C1387.27 340.887 1387.36 340.773 1387.46 340.677C1387.57 340.581 1387.7 340.505 1387.84 340.453C1387.98 340.402 1388.13 340.375 1388.28 340.375H1395.22C1395.37 340.375 1395.52 340.402 1395.66 340.453C1395.8 340.505 1395.93 340.581 1396.04 340.677C1396.14 340.773 1396.23 340.887 1396.29 341.012C1396.35 341.137 1396.38 341.272 1396.38 341.407V347.593V347.593ZM1424.12 331.093C1424.13 331.228 1424.1 331.363 1424.04 331.488C1423.98 331.613 1423.89 331.727 1423.79 331.823C1423.68 331.919 1423.55 331.995 1423.41 332.047C1423.27 332.098 1423.12 332.125 1422.97 332.125H1416.03C1415.88 332.125 1415.73 332.098 1415.59 332.047C1415.45 331.995 1415.32 331.919 1415.21 331.823C1415.11 331.727 1415.02 331.613 1414.96 331.488C1414.9 331.363 1414.87 331.228 1414.88 331.093V324.907C1414.87 324.772 1414.9 324.637 1414.96 324.512C1415.02 324.387 1415.11 324.273 1415.21 324.177C1415.32 324.081 1415.45 324.005 1415.59 323.953C1415.73 323.902 1415.88 323.875 1416.03 323.875H1422.97C1423.12 323.875 1423.27 323.902 1423.41 323.953C1423.55 324.005 1423.68 324.081 1423.79 324.177C1423.89 324.273 1423.98 324.387 1424.04 324.512C1424.1 324.637 1424.13 324.772 1424.12 324.907V331.093ZM1396.38 335.218C1396.37 335.353 1396.4 335.488 1396.46 335.613C1396.52 335.738 1396.61 335.852 1396.71 335.948C1396.82 336.044 1396.95 336.12 1397.09 336.172C1397.23 336.223 1397.38 336.25 1397.53 336.25H1404.47C1404.62 336.25 1404.77 336.223 1404.91 336.172C1405.05 336.12 1405.18 336.044 1405.29 335.948C1405.39 335.852 1405.48 335.738 1405.54 335.613C1405.6 335.488 1405.63 335.353 1405.62 335.218V329.032C1405.63 328.897 1405.6 328.762 1405.54 328.637C1405.48 328.512 1405.39 328.398 1405.29 328.302C1405.18 328.206 1405.05 328.13 1404.91 328.078C1404.77 328.027 1404.62 328 1404.47 328H1397.53C1397.38 328 1397.23 328.027 1397.09 328.078C1396.95 328.13 1396.82 328.206 1396.71 328.302C1396.61 328.398 1396.52 328.512 1396.46 328.637C1396.4 328.762 1396.37 328.897 1396.38 329.032V335.218ZM1405.62 314.593C1405.62 314.728 1405.65 314.863 1405.71 314.988C1405.77 315.113 1405.86 315.227 1405.96 315.323C1406.07 315.419 1406.2 315.495 1406.34 315.547C1406.48 315.598 1406.63 315.625 1406.78 315.625H1413.72C1413.87 315.625 1414.02 315.598 1414.16 315.547C1414.3 315.495 1414.43 315.419 1414.54 315.323C1414.64 315.227 1414.73 315.113 1414.79 314.988C1414.85 314.863 1414.88 314.728 1414.88 314.593V308.407C1414.88 308.272 1414.85 308.137 1414.79 308.012C1414.73 307.887 1414.64 307.773 1414.54 307.677C1414.43 307.581 1414.3 307.505 1414.16 307.453C1414.02 307.402 1413.87 307.375 1413.72 307.375H1406.78C1406.63 307.375 1406.48 307.402 1406.34 307.453C1406.2 307.505 1406.07 307.581 1405.96 307.677C1405.86 307.773 1405.77 307.887 1405.71 308.012C1405.65 308.137 1405.62 308.272 1405.62 308.407V314.593V314.593Z" fill="#EEEEEE"/>
<path d="M171.98 572.5C179.044 572.5 182.779 569.387 185.504 567.112C187.954 565.071 189.159 564.167 191.964 564.167C194.769 564.167 195.974 565.071 198.424 567.112C201.149 569.387 204.884 572.5 211.954 572.5C219.028 572.5 222.768 569.387 225.503 567.112C227.958 565.071 229.163 564.167 231.978 564.167C234.793 564.167 235.998 565.071 238.453 567.112C241.183 569.387 244.923 572.5 251.998 572.5V564.167C249.183 564.167 247.978 563.262 245.523 561.221C242.793 558.946 239.053 555.833 231.978 555.833C224.903 555.833 221.168 558.946 218.433 561.217C215.979 563.262 214.779 564.167 211.954 564.167C209.144 564.167 207.944 563.262 205.494 561.221C202.769 558.946 199.034 555.833 191.964 555.833C184.894 555.833 181.159 558.946 178.434 561.221C175.984 563.262 174.784 564.167 171.98 564.167C169.175 564.167 167.975 563.262 165.525 561.221C162.8 558.946 159.065 555.833 152 555.833V564.167C154.805 564.167 156.005 565.071 158.455 567.112C161.18 569.387 164.915 572.5 171.98 572.5ZM171.98 593.333C179.044 593.333 182.779 590.221 185.504 587.946C187.954 585.904 189.159 585 191.964 585C194.769 585 195.974 585.904 198.424 587.946C201.149 590.221 204.884 593.333 211.954 593.333C219.028 593.333 222.768 590.221 225.503 587.946C227.958 585.904 229.163 585 231.978 585C234.793 585 235.998 585.904 238.453 587.946C241.183 590.221 244.923 593.333 251.998 593.333V585C249.183 585 247.978 584.096 245.523 582.054C242.793 579.779 239.053 576.667 231.978 576.667C224.903 576.667 221.168 579.779 218.433 582.05C215.979 584.096 214.779 585 211.954 585C209.144 585 207.944 584.096 205.494 582.054C202.769 579.779 199.034 576.667 191.964 576.667C184.894 576.667 181.159 579.779 178.434 582.054C175.984 584.096 174.784 585 171.98 585C169.175 585 167.975 584.096 165.525 582.054C162.8 579.779 159.065 576.667 152 576.667V585C154.805 585 156.005 585.904 158.455 587.946C161.18 590.221 164.915 593.333 171.98 593.333ZM171.98 614.167C179.044 614.167 182.779 611.054 185.504 608.779C187.954 606.738 189.159 605.833 191.964 605.833C194.769 605.833 195.974 606.738 198.424 608.779C201.149 611.054 204.884 614.167 211.954 614.167C219.028 614.167 222.768 611.054 225.503 608.779C227.958 606.738 229.163 605.833 231.978 605.833C234.793 605.833 235.998 606.738 238.453 608.779C241.183 611.054 244.923 614.167 251.998 614.167V605.833C249.183 605.833 247.978 604.929 245.523 602.888C242.793 600.613 239.053 597.5 231.978 597.5C224.903 597.5 221.168 600.613 218.433 602.883C215.979 604.929 214.779 605.833 211.954 605.833C209.144 605.833 207.944 604.929 205.494 602.888C202.769 600.613 199.034 597.5 191.964 597.5C184.894 597.5 181.159 600.613 178.434 602.888C175.984 604.929 174.784 605.833 171.98 605.833C169.175 605.833 167.975 604.929 165.525 602.888C162.8 600.613 159.065 597.5 152 597.5V605.833C154.805 605.833 156.005 606.738 158.455 608.779C161.18 611.054 164.915 614.167 171.98 614.167Z" fill="#EEEEEE"/>
<g clip-path="url(#clip2_0:1)">
<path d="M1241.04 486.108L1264.97 497.001C1273.22 473.112 1285.18 454.728 1297.55 446.112C1275.08 444.679 1253.31 456.94 1239.3 478.866C1237.74 481.327 1238.68 485.033 1241.04 486.108V486.108ZM1272.04 500.217L1327.93 525.656C1336.31 490.095 1332.31 457.787 1317.94 451.248C1316.21 450.457 1314.39 450.076 1312.53 450.076C1298.93 450.079 1282.47 470.34 1272.04 500.217V500.217ZM1336.22 463.725C1337.68 468.501 1338.76 473.862 1339.32 479.894C1340.66 494.51 1338.98 511.602 1334.87 528.814L1358.93 539.759C1361.29 540.835 1363.92 538.754 1363.98 535.608C1364.53 507.574 1354.16 480.694 1336.22 463.725V463.725ZM1345.25 577.245H1289.25L1304.47 524.956L1290.37 518.54L1273.29 577.242H1217.75C1215.68 577.242 1214 579.339 1214 581.932V591.31C1214 593.9 1215.68 596.001 1217.75 596.001H1345.25C1347.32 596.001 1349 593.9 1349 591.31V581.932C1349 579.342 1347.32 577.245 1345.25 577.245Z" fill="#EEEEEE"/>
</g>
<path fill-rule="evenodd" clip-rule="evenodd" d="M178.688 649.093C178.688 649.212 178.662 649.33 178.613 649.44C178.563 649.55 178.491 649.65 178.399 649.734C178.308 649.819 178.199 649.885 178.079 649.931C177.96 649.977 177.832 650 177.702 650H171.798C171.668 650 171.54 649.977 171.421 649.931C171.301 649.885 171.192 649.819 171.101 649.734C171.009 649.65 170.937 649.55 170.887 649.44C170.838 649.33 170.812 649.212 170.813 649.093V643.657C170.812 643.538 170.838 643.42 170.887 643.31C170.937 643.2 171.009 643.1 171.101 643.016C171.192 642.931 171.301 642.865 171.421 642.819C171.54 642.773 171.668 642.75 171.798 642.75H177.702C177.832 642.75 177.96 642.773 178.079 642.819C178.199 642.865 178.308 642.931 178.399 643.016C178.491 643.1 178.563 643.2 178.613 643.31C178.662 643.42 178.688 643.538 178.688 643.657V649.093V649.093ZM186.562 667.218C186.563 667.337 186.537 667.455 186.488 667.565C186.438 667.675 186.366 667.775 186.274 667.859C186.183 667.944 186.074 668.011 185.954 668.056C185.835 668.102 185.707 668.125 185.577 668.125H179.673C179.543 668.125 179.415 668.102 179.296 668.056C179.176 668.011 179.067 667.944 178.976 667.859C178.884 667.775 178.812 667.675 178.762 667.565C178.713 667.455 178.687 667.337 178.688 667.218V661.782C178.687 661.663 178.713 661.545 178.762 661.435C178.812 661.325 178.884 661.225 178.976 661.141C179.067 661.056 179.176 660.989 179.296 660.944C179.415 660.898 179.543 660.875 179.673 660.875H185.577C185.707 660.875 185.835 660.898 185.954 660.944C186.074 660.989 186.183 661.056 186.274 661.141C186.366 661.225 186.438 661.325 186.488 661.435C186.537 661.545 186.563 661.663 186.562 661.782V667.218V667.218ZM210.188 652.718C210.188 652.837 210.162 652.955 210.113 653.065C210.063 653.175 209.991 653.275 209.899 653.359C209.808 653.444 209.699 653.511 209.579 653.556C209.46 653.602 209.332 653.625 209.202 653.625H203.298C203.168 653.625 203.04 653.602 202.921 653.556C202.801 653.511 202.692 653.444 202.601 653.359C202.509 653.275 202.437 653.175 202.387 653.065C202.338 652.955 202.312 652.837 202.312 652.718V647.282C202.312 647.163 202.338 647.045 202.387 646.935C202.437 646.825 202.509 646.725 202.601 646.641C202.692 646.556 202.801 646.49 202.921 646.444C203.04 646.398 203.168 646.375 203.298 646.375H209.202C209.332 646.375 209.46 646.398 209.579 646.444C209.699 646.49 209.808 646.556 209.899 646.641C209.991 646.725 210.063 646.825 210.113 646.935C210.162 647.045 210.188 647.163 210.188 647.282V652.718ZM186.562 656.343C186.562 656.462 186.588 656.58 186.637 656.69C186.687 656.8 186.759 656.9 186.851 656.984C186.942 657.069 187.051 657.136 187.171 657.181C187.29 657.227 187.418 657.25 187.548 657.25H193.452C193.582 657.25 193.71 657.227 193.829 657.181C193.949 657.136 194.058 657.069 194.149 656.984C194.241 656.9 194.313 656.8 194.363 656.69C194.412 656.58 194.438 656.462 194.438 656.343V650.907C194.438 650.788 194.412 650.67 194.363 650.56C194.313 650.45 194.241 650.35 194.149 650.266C194.058 650.181 193.949 650.114 193.829 650.069C193.71 650.023 193.582 650 193.452 650H187.548C187.418 650 187.29 650.023 187.171 650.069C187.051 650.114 186.942 650.181 186.851 650.266C186.759 650.35 186.687 650.45 186.637 650.56C186.588 650.67 186.562 650.788 186.562 650.907V656.343ZM194.438 638.218C194.437 638.337 194.463 638.455 194.512 638.565C194.562 638.675 194.634 638.775 194.726 638.859C194.817 638.944 194.926 639.01 195.046 639.056C195.165 639.102 195.293 639.125 195.423 639.125H201.327C201.457 639.125 201.585 639.102 201.704 639.056C201.824 639.01 201.933 638.944 202.024 638.859C202.116 638.775 202.188 638.675 202.238 638.565C202.287 638.455 202.313 638.337 202.312 638.218V632.782C202.313 632.663 202.287 632.545 202.238 632.435C202.188 632.325 202.116 632.225 202.024 632.141C201.933 632.056 201.824 631.99 201.704 631.944C201.585 631.898 201.457 631.875 201.327 631.875H195.423C195.293 631.875 195.165 631.898 195.046 631.944C194.926 631.99 194.817 632.056 194.726 632.141C194.634 632.225 194.562 632.325 194.512 632.435C194.463 632.545 194.437 632.663 194.438 632.782V638.218V638.218Z" fill="#EEEEEE"/>
<path d="M1472.47 414.594L1439.66 381.781C1438.72 380.844 1437.78 380.375 1436.38 380.375H1389.5C1384.34 380.375 1380.12 384.594 1380.12 389.75V502.25C1380.12 507.406 1384.34 511.625 1389.5 511.625H1464.5C1469.66 511.625 1473.88 507.406 1473.88 502.25V417.875C1473.88 416.469 1473.41 415.531 1472.47 414.594ZM1436.38 391.625L1462.63 417.875H1436.38V391.625ZM1464.5 502.25H1389.5V389.75H1427V417.875C1427 423.031 1431.22 427.25 1436.38 427.25H1464.5V502.25Z" fill="#EEEEEE"/>
<path d="M1398.88 474.125H1455.12V483.5H1398.88V474.125Z" fill="#EEEEEE"/>
<path d="M1398.88 446H1455.12V455.375H1398.88V446Z" fill="#EEEEEE"/>
<rect x="-8" y="-13" width="1447" height="913" fill="url(#paint0_linear_0:1)"/>
<path d="M1423.5 166.107C1420.7 166.107 1417.93 166.816 1415.35 168.192C1412.76 169.569 1410.41 171.586 1408.44 174.129C1406.46 176.672 1404.89 179.692 1403.82 183.014C1402.75 186.337 1402.2 189.899 1402.2 193.495C1402.2 197.092 1402.75 200.653 1403.82 203.976C1404.89 207.299 1406.46 210.318 1408.44 212.861C1410.41 215.405 1412.76 217.422 1415.35 218.798C1417.93 220.175 1420.7 220.883 1423.5 220.883C1429.15 220.883 1434.57 217.998 1438.56 212.861C1442.56 207.725 1444.8 200.759 1444.8 193.495C1444.8 186.232 1442.56 179.265 1438.56 174.129C1434.57 168.993 1429.15 166.107 1423.5 166.107V166.107ZM1408.76 193.495C1408.76 188.469 1410.31 183.649 1413.08 180.095C1415.84 176.541 1419.59 174.545 1423.5 174.545C1427.41 174.545 1431.16 176.541 1433.92 180.095C1436.69 183.649 1438.24 188.469 1438.24 193.495C1438.24 198.521 1436.69 203.341 1433.92 206.895C1431.16 210.449 1427.41 212.446 1423.5 212.446C1419.59 212.446 1415.84 210.449 1413.08 206.895C1410.31 203.341 1408.76 198.521 1408.76 193.495Z" fill="#EEEEEE"/>
<path d="M1435.29 137.327C1431.83 122.224 1415.17 122.224 1411.71 137.327L1411.1 140.019C1410.85 141.073 1410.43 142.045 1409.86 142.862C1409.29 143.679 1408.58 144.322 1407.79 144.743C1407 145.163 1406.15 145.351 1405.3 145.293C1404.44 145.235 1403.61 144.932 1402.86 144.406L1400.94 143.056C1390.18 135.53 1378.41 150.667 1384.27 164.496L1385.32 166.96C1385.73 167.925 1385.96 168.995 1386.01 170.093C1386.05 171.19 1385.91 172.287 1385.58 173.302C1385.25 174.318 1384.75 175.226 1384.12 175.961C1383.48 176.696 1382.72 177.238 1381.9 177.549L1379.81 178.342C1368.06 182.788 1368.06 204.202 1379.81 208.649L1381.9 209.442C1382.72 209.753 1383.48 210.295 1384.12 211.03C1384.75 211.765 1385.25 212.673 1385.58 213.688C1385.91 214.704 1386.05 215.8 1386.01 216.898C1385.96 217.995 1385.73 219.066 1385.32 220.031L1384.27 222.495C1378.41 236.332 1390.18 251.469 1400.94 243.926L1402.86 242.584C1403.61 242.059 1404.44 241.756 1405.3 241.697C1406.15 241.639 1407 241.827 1407.79 242.248C1408.58 242.669 1409.29 243.311 1409.86 244.129C1410.43 244.946 1410.85 245.918 1411.1 246.972L1411.71 249.663C1415.17 264.766 1431.83 264.766 1435.29 249.663L1435.9 246.972C1436.15 245.918 1436.57 244.946 1437.14 244.129C1437.71 243.311 1438.42 242.669 1439.21 242.248C1440 241.827 1440.85 241.639 1441.7 241.697C1442.56 241.756 1443.39 242.059 1444.14 242.584L1446.06 243.934C1456.82 251.469 1468.59 236.324 1462.73 222.495L1461.68 220.031C1461.27 219.066 1461.04 217.995 1460.99 216.898C1460.95 215.8 1461.09 214.704 1461.42 213.688C1461.75 212.673 1462.25 211.765 1462.88 211.03C1463.52 210.295 1464.28 209.753 1465.1 209.442L1467.19 208.649C1478.94 204.202 1478.94 182.788 1467.19 178.342L1465.1 177.549C1464.28 177.238 1463.52 176.696 1462.88 175.961C1462.25 175.226 1461.75 174.318 1461.42 173.302C1461.09 172.287 1460.95 171.19 1460.99 170.093C1461.04 168.995 1461.27 167.925 1461.68 166.96L1462.73 164.496C1468.59 150.658 1456.81 135.53 1446.06 143.065L1444.14 144.406C1443.39 144.932 1442.56 145.235 1441.7 145.293C1440.85 145.351 1440 145.163 1439.21 144.743C1438.42 144.322 1437.71 143.679 1437.14 142.862C1436.57 142.045 1436.15 141.073 1435.9 140.019L1435.29 137.327V137.327ZM1418.01 139.715C1419.62 132.67 1427.38 132.67 1428.99 139.715L1429.61 142.407C1430.13 144.669 1431.03 146.753 1432.26 148.506C1433.49 150.259 1435 151.638 1436.7 152.54C1438.39 153.442 1440.22 153.845 1442.06 153.719C1443.89 153.594 1445.67 152.943 1447.28 151.814L1449.19 150.464C1454.21 146.963 1459.69 154.008 1456.96 160.463L1455.92 162.926C1455.04 164.997 1454.54 167.294 1454.44 169.648C1454.35 172.002 1454.66 174.355 1455.36 176.533C1456.06 178.71 1457.14 180.659 1458.5 182.235C1459.87 183.81 1461.49 184.974 1463.24 185.64L1465.33 186.433C1470.81 188.509 1470.81 198.482 1465.33 200.557L1463.24 201.351C1461.48 202.017 1459.86 203.182 1458.49 204.759C1457.13 206.336 1456.06 208.285 1455.36 210.464C1454.65 212.642 1454.34 214.996 1454.44 217.35C1454.54 219.705 1455.04 222.002 1455.92 224.073L1456.97 226.528C1459.69 232.974 1454.21 240.028 1449.19 236.518L1447.28 235.176C1445.67 234.048 1443.89 233.397 1442.05 233.272C1440.22 233.147 1438.39 233.551 1436.7 234.454C1435 235.357 1433.49 236.736 1432.26 238.49C1431.03 240.245 1430.13 242.33 1429.61 244.592L1428.99 247.276C1427.38 254.321 1419.62 254.321 1418.01 247.276L1417.39 244.584C1416.87 242.323 1415.97 240.24 1414.74 238.488C1413.51 236.735 1412 235.358 1410.3 234.456C1408.61 233.554 1406.78 233.15 1404.95 233.275C1403.12 233.4 1401.33 234.049 1399.72 235.176L1397.81 236.526C1392.79 240.028 1387.31 232.983 1390.04 226.528L1391.08 224.073C1391.96 222.002 1392.47 219.704 1392.56 217.348C1392.66 214.992 1392.35 212.638 1391.65 210.458C1390.95 208.278 1389.87 206.328 1388.51 204.751C1387.14 203.173 1385.52 202.009 1383.76 201.342L1381.67 200.549C1376.19 198.473 1376.19 188.5 1381.67 186.425L1383.76 185.632C1385.52 184.964 1387.14 183.8 1388.5 182.224C1389.86 180.649 1390.93 178.701 1391.64 176.525C1392.34 174.348 1392.65 171.997 1392.56 169.645C1392.46 167.292 1391.95 164.996 1391.08 162.926L1390.03 160.463C1387.31 154.017 1392.79 146.963 1397.81 150.473L1399.72 151.814C1401.33 152.941 1403.12 153.591 1404.95 153.716C1406.78 153.84 1408.61 153.437 1410.3 152.535C1412 151.633 1413.51 150.255 1414.74 148.503C1415.97 146.75 1416.87 144.667 1417.39 142.407L1418.01 139.715V139.715Z" fill="#EEEEEE"/>
</g>
<defs>
<linearGradient id="paint0_linear_0:1" x1="715.5" y1="-13" x2="715.5" y2="900" gradientUnits="userSpaceOnUse">
<stop stop-color="#E0EFEB" stop-opacity="0.54"/>
<stop offset="1" stop-color="#C4C4C4" stop-opacity="0"/>
</linearGradient>
<clipPath id="clip0_0:1">
<rect width="1440" height="900" fill="white"/>
</clipPath>
<clipPath id="clip1_0:1">
<rect width="150" height="150" fill="white" transform="translate(-38 460)"/>
</clipPath>
<clipPath id="clip2_0:1">
<rect width="150" height="150" fill="white" transform="translate(1214 446)"/>
</clipPath>
</defs>
</svg>
